{"accessors" : [{"bufferView" : 0, "byteOffset" : 0, "componentType" : 5123, "count" : 2952, "type" : "SCALAR", "max" : [2951], "min" : [0]}, {"bufferView" : 1, "byteOffset" : 0, "componentType" : 5126, "count" : 2952, "type" : "VEC3", "max" : [0.36865299940109253, -0.2745560109615326, 3.570050001144409], "min" : [-6.558720111846924, -3.57738995552063, -3.570050001144409], "name" : "POSITION"}, {"bufferView" : 1, "byteOffset" : 12, "componentType" : 5126, "count" : 2952, "type" : "VEC3", "max" : [1.0000042915344238, 1.0000042915344238, 0.9814257621765137], "min" : [-1.0000041723251343, -1.0000042915344238, -0.9814257621765137], "name" : "NORMAL"}, {"bufferView" : 1, "byteOffset" : 24, "componentType" : 5126, "count" : 2952, "type" : "VEC3", "max" : [0.501960813999176, 0.501960813999176, 0.501960813999176], "min" : [0.501960813999176, 0.501960813999176, 0.501960813999176], "name" : "COLOR_0"}, {"bufferView" : 1, "byteOffset" : 36, "componentType" : 5126, "count" : 2952, "type" : "VEC2", "max" : [0.9580078125, 0.970703125], "min" : [0.4189453125, 0.019561767578125], "name" : "TEXCOORD_0"}, {"bufferView" : 0, "byteOffset" : 5904, "componentType" : 5123, "count" : 4488, "type" : "SCALAR", "max" : [4487], "min" : [0]}, {"bufferView" : 2, "byteOffset" : 0, "componentType" : 5126, "count" : 4488, "type" : "VEC3", "max" : [0.3684999942779541, 3.5764200687408447, 3.5699000358581543], "min" : [-6.848790168762207, -1.2768800258636475, -3.5699000358581543], "name" : "POSITION"}, {"bufferView" : 2, "byteOffset" : 12, "componentType" : 5126, "count" : 4488, "type" : "VEC3", "max" : [1.0000044107437134, 1.0000042915344238, 0.9999815225601196], "min" : [-1.0000044107437134, -1.0000044107437134, -0.9999814033508301], "name" : "NORMAL"}, {"bufferView" : 2, "byteOffset" : 24, "componentType" : 5126, "count" : 4488, "type" : "VEC3", "max" : [0.501960813999176, 0.501960813999176, 0.501960813999176], "min" : [0.501960813999176, 0.501960813999176, 0.501960813999176], "name" : "COLOR_0"}, {"bufferView" : 2, "byteOffset" : 36, "componentType" : 5126, "count" : 4488, "type" : "VEC2", "max" : [0.99609375, 0.9970703125], "min" : [0.00557708740234375, 0.009765625], "name" : "TEXCOORD_0"}], "asset" : {"generator" : "Aspose.3D 24.9.0", "version" : "2.0"}, "buffers" : [{"uri" : "data:application/octet-stream;base64,", "byteLength" : 342252}], "bufferViews" : [{"buffer" : 0, "byteOffset" : 0, "byteLength" : 14880, "target" : 34963}, {"buffer" : 0, "byteOffset" : 14884, "byteLength" : 129888, "byteStride" : 44, "target" : 34962}, {"buffer" : 0, "byteOffset" : 144776, "byteLength" : 197472, "byteStride" : 44, "target" : 34962}], "images" : [{"uri" : "G:\\Model Ripping\\Fighters\\Charizard\\Textures\\Pok Ball\\def_mball_001_col.png"}], "materials" : [{"name" : "def_mball_001", "pbrMetallicRoughness" : {"baseColorFactor" : [1, 1, 1, 1], "baseColorTexture" : {"index" : 0, "texCoord" : 0}, "metallicFactor" : 1, "roughnessFactor" : 1}, "emissiveFactor" : [0, 0, 0], "alphaMode" : "OPAQUE", "doubleSided" : false}], "meshes" : [{"primitives" : [{"attributes" : {"POSITION" : 1, "NORMAL" : 2, "COLOR_0" : 3, "TEXCOORD_0" : 4}, "indices" : 0, "material" : 0, "mode" : 4}], "name" : ""}, {"primitives" : [{"attributes" : {"POSITION" : 6, "NORMAL" : 7, "COLOR_0" : 8, "TEXCOORD_0" : 9}, "indices" : 5, "material" : 0, "mode" : 4}], "name" : ""}], "nodes" : [{"matrix" : [1, 0, 0, 0, 0, 6.123233995736766E-17, -1, 0, 0, 1, 6.123233995736766E-17, 0, 3.299999952316284, 0, 0, 1], "mesh" : 0, "name" : "downShape"}, {"matrix" : [1, 0, 0, 0, 0, 6.123233995736766E-17, -1, 0, 0, 1, 6.123233995736766E-17, 0, 3.299999952316284, 0, 0, 1], "mesh" : 1, "name" : "upShape"}], "samplers" : [{"magFilter" : 9729, "minFilter" : 9729, "wrapS" : 10497, "wrapT" : 10497}], "scene" : 0, "scenes" : [{"nodes" : [0, 1]}], "textures" : [{"sampler" : 0, "source" : 0, "name" : "Bitmaptexture"}]}